<svg xmlns="http://www.w3.org/2000/svg" width="23" height="20">
  <path fill="#ffffff" d="M16.57.08a.94.94 0 0 0-.36-.08.87.87 0 0 0-.63.27.92.92 0 0 0-.26.63 1 1 0 0 0 .54.83 2.2 2.2 0 0 0 .31.15l.31.12a12 12 0 0 1 1.13.72 8.83 8.83 0 0 1 2.66 3.19 9.15 9.15 0 0 1 0 8.13 8.86 8.86 0 0 1-2.66 3.2 9.34 9.34 0 0 1-1.13.76 1.48 1.48 0 0 1-.31.15 2.2 2.2 0 0 0-.31.15.94.94 0 0 0-.54.83.92.92 0 0 0 .26.63.87.87 0 0 0 .63.27.92.92 0 0 0 .36-.07 10.52 10.52 0 0 0 4.68-4 11 11 0 0 0 0-11.88 10.52 10.52 0 0 0-4.68-4m-1.39 3.27a1.15 1.15 0 0 0-.36-.07.87.87 0 0 0-.63.27.82.82 0 0 0-.26.63.87.87 0 0 0 .54.83 8.71 8.71 0 0 1 1 .62 5.29 5.29 0 0 1 1.6 1.91 5.57 5.57 0 0 1 0 4.88 5.39 5.39 0 0 1-1.6 1.91 8.62 8.62 0 0 1-1 .61.88.88 0 0 0-.54.83.89.89 0 0 0 .89.9.81.81 0 0 0 .35-.07 6.83 6.83 0 0 0 3.12-2.6 7.32 7.32 0 0 0 0-7.94 6.94 6.94 0 0 0-3.11-2.66M13.8 6.7a.75.75 0 0 0-.33-.07.89.89 0 0 0-.9.89.71.71 0 0 0 .17.5 1.23 1.23 0 0 0 .4.35c.16.1.31.21.47.33a1.76 1.76 0 0 1 .4.5 1.82 1.82 0 0 1 .16.8 1.82 1.82 0 0 1-.16.8 1.76 1.76 0 0 1-.4.5c-.16.12-.31.22-.47.32a1.54 1.54 0 0 0-.4.36.69.69 0 0 0-.17.49.82.82 0 0 0 .26.64.86.86 0 0 0 .63.26.64.64 0 0 0 .33-.07 3.32 3.32 0 0 0 1.54-1.3 3.68 3.68 0 0 0 0-4 3.24 3.24 0 0 0-1.53-1.3m-3.43-5a.87.87 0 0 0-1.23 0l-4.6 4.69H.89a.89.89 0 0 0-.89.9v5.4a.84.84 0 0 0 .26.63.87.87 0 0 0 .63.27H4.5l4.6 4.68a.86.86 0 0 0 1.21 0 .8.8 0 0 0 .27-.63V2.36a.83.83 0 0 0-.27-.64"/>
  <path stroke="#ffffff" stroke-linecap="round" stroke-miterlimit="10" stroke-width="2" d="M1.18 1.04L22 18.84"/>
</svg>
