<svg xmlns="http://www.w3.org/2000/svg" viewBox="0 0 23.38 20">
  <path fill="#ffffff" d="M16.76.07a.92.92 0 0 0-.36-.08.84.84 0 0 0-.62.27.86.86 0 0 0-.26.63 1 1 0 0 0 .54.83 2.28 2.28 0 0 0 .31.15l.31.14a12.36 12.36 0 0 1 1.13.72 8.93 8.93 0 0 1 2.66 3.19 9.17 9.17 0 0 1 0 8.13 9 9 0 0 1-2.66 3.2 10.53 10.53 0 0 1-1.13.71 2.28 2.28 0 0 1-.31.15 2.28 2.28 0 0 0-.31.15.94.94 0 0 0-.54.83.89.89 0 0 0 .26.63.84.84 0 0 0 .62.27.92.92 0 0 0 .36-.07 10.43 10.43 0 0 0 4.68-4 11 11 0 0 0 0-11.88 10.43 10.43 0 0 0-4.68-4m-1.39 3.3a1.15 1.15 0 0 0-.36-.07.83.83 0 0 0-.62.27.86.86 0 0 0-.27.63.88.88 0 0 0 .54.83 9 9 0 0 1 1 .62 5.19 5.19 0 0 1 1.6 1.91 5.51 5.51 0 0 1 0 4.88 5.27 5.27 0 0 1-1.6 1.91 8 8 0 0 1-1 .61.9.9 0 0 0-.54.83.87.87 0 0 0 .27.64.82.82 0 0 0 .63.26.91.91 0 0 0 .35-.07 6.78 6.78 0 0 0 3.11-2.6 7.32 7.32 0 0 0 0-7.94 6.86 6.86 0 0 0-3.11-2.66M14 6.69a.86.86 0 0 0-.34-.07.89.89 0 0 0-.89.9.76.76 0 0 0 .17.5 1.35 1.35 0 0 0 .4.35c.16.1.31.21.47.33a1.47 1.47 0 0 1 .4.5 1.73 1.73 0 0 1 .16.8 1.76 1.76 0 0 1-.16.8 1.47 1.47 0 0 1-.4.5c-.16.12-.31.22-.47.32a1.54 1.54 0 0 0-.4.36.75.75 0 0 0-.17.49.87.87 0 0 0 .26.64.85.85 0 0 0 .63.26.71.71 0 0 0 .34-.07 3.31 3.31 0 0 0 1.53-1.31 3.63 3.63 0 0 0 .58-2 3.69 3.69 0 0 0-.58-2A3.25 3.25 0 0 0 14 6.69m-3.43-5a.87.87 0 0 0-1.24 0l-4.6 4.69H1.08a.9.9 0 0 0-.89.9v5.4a.89.89 0 0 0 .26.63.86.86 0 0 0 .63.27H4.7l4.6 4.68a.85.85 0 0 0 1.24 0 .86.86 0 0 0 .27-.63V2.35a.87.87 0 0 0-.27-.64"/>
  <path fill="none" d="M0 .01h23.38v19.98H0z"/>
</svg>